# xmcd CD database file
#
# Track frame offsets:
#	150
#	18991
#	36860
#	66622
#	82044
#
# Disc length: 1507 seconds
#
# Revision: 0
# Processed by: cddbd v1.5.2PL0 Copyright (c) Steve Scherf et al.
# Submitted via: CDex 1.70beta2
#
DISCID=3f05e105
DTITLE=Anna Maria Jopek - Zrób, co możesz
DYEAR=2007
DGENRE=Jazz
TTITLE0=Zrób co możesz (Radio edit, mix and master)
TTITLE1=Nie budźcie mnie
TTITLE2=Spróbuj mówić kocham (Live)
TTITLE3=Usisz się (Bass duet live)
TTITLE4=Tu i teraz (Live)
EXTD=YEAR: 2007
EXTT0=
EXTT1=
EXTT2=
EXTT3=
EXTT4=
PLAYORDER=
